# xmcd
#
# Track frame offsets: 
#        150
#        12217
#        26432
#        38945
#        51997
#        65707
#        77702
#        90572
#        104572
#        118570
#        132142
#        146802
#        160697
#        174575
#        187415
#        199115
#        212605
#        225687
#
# Disc length: 3175 seconds
#
# Revision: 0
# Processed by: cddbd v1.5.2PL0 Copyright (c) Steve Scherf et al.
# Submitted via: ExactAudioCopy v0.99pb4
#
DISCID=000c6512
DTITLE=Blind Blake - Best Of
DYEAR=1900
DGENRE=Blues
TTITLE0=Too Tight
TTITLE1=Blake Worried Blues
TTITLE2=Come on Boys
TTITLE3=Police Dog Blues
TTITLE4=Blind Arthur's Breakdown
TTITLE5=One Time Blues
TTITLE6=Black Dog Blues
TTITLE7=Early Morning Blues
TTITLE8=Seaboard Stomp
TTITLE9=Sweet Jivin' Mama
TTITLE10=Hastings Street
TTITLE11=Skeedle Loo Doo Blues
TTITLE12=Rope Stretching Blues
TTITLE13=He's in the Jailhouse Now
TTITLE14=CC Pill Blues
TTITLE15=Diddie Wa Diddie
TTITLE16=Southern Rag
TTITLE17=Chump Man Blues
EXTD=
EXTT0=
EXTT1=
EXTT2=
EXTT3=
EXTT4=
EXTT5=
EXTT6=
EXTT7=
EXTT8=
EXTT9=
EXTT10=
EXTT11=
EXTT12=
EXTT13=
EXTT14=
EXTT15=
EXTT16=
EXTT17=
PLAYORDER=
